<svg xmlns="http://www.w3.org/2000/svg" xmlns:xlink="http://www.w3.org/1999/xlink" viewBox="0 0 156.36 156.36"><defs><style>.cls-1{fill:none;}.cls-2{fill:url(#Naamloos_verloop_7);}.cls-3{fill:#fff;}.cls-4{fill:url(#Naamloos_verloop_7-2);}.cls-5{fill:#3c3c3b;stroke:#fff;stroke-miterlimit:10;}</style><linearGradient id="Naamloos_verloop_7" x1="80.16" y1="35.12" x2="80.16" y2="124.48" gradientUnits="userSpaceOnUse"><stop offset="0" stop-color="#662483"/><stop offset="1" stop-color="#951b81" stop-opacity="0.6"/></linearGradient><linearGradient id="Naamloos_verloop_7-2" x1="24.37" y1="26.53" x2="24.37" y2="77.71" gradientTransform="translate(36.26 -1.54) rotate(5.73)" xlink:href="#Naamloos_verloop_7"/></defs><g id="Laag_2" data-name="Laag 2"><g id="Laag_1-2" data-name="Laag 1"><circle class="cls-1" cx="78.18" cy="78.18" r="78.18"/><path class="cls-2" d="M125.29,79.35a45.13,45.13,0,0,1-90.26,0c0-16.83,11.32,18.29,25,10.53,2.77-1.57-3.18-11.52-2.19-15,.55-1.87,5.59-2.83,10.41-4.2,3.13-.89-3.8-9.38-3.8-13.5,0-3.12,21.9-22.69,24.83-22.09A45.15,45.15,0,0,1,125.29,79.35Z"/><polygon class="cls-3" points="95.9 76.27 86.12 76.27 92.22 48.27 64.42 82.43 74.2 82.43 68.1 110.43 95.9 76.27"/><path class="cls-4" d="M56,44C50.47,47.8,68,67.49,54.6,63.68c-4.25-1.21-.18,13.73-3.49,14.31S33,65.07,33.22,62.91C36.4,38.19,53.06,27.71,78.7,29.38,78.7,29.38,73.11,32.39,56,44Z"/><rect class="cls-5" x="96.97" y="106.46" width="26.37" height="5.77" rx="2.89"/></g></g></svg>