<svg xmlns="http://www.w3.org/2000/svg" xmlns:xlink="http://www.w3.org/1999/xlink" viewBox="0 0 156.36 156.36"><defs><style>.cls-1{fill:none;}.cls-2{fill:url(#Naamloos_verloop_7);}.cls-3{fill:#fff;}.cls-4{fill:url(#Naamloos_verloop_7-2);}.cls-5{fill:#3c3c3b;stroke:#fff;stroke-miterlimit:10;}</style><linearGradient id="Naamloos_verloop_7" x1="79.08" y1="33.79" x2="79.08" y2="123.14" gradientUnits="userSpaceOnUse"><stop offset="0" stop-color="#662483"/><stop offset="1" stop-color="#951b81" stop-opacity="0.6"/></linearGradient><linearGradient id="Naamloos_verloop_7-2" x1="23.55" y1="33.24" x2="23.55" y2="84.42" gradientTransform="translate(36.67 -9.48) rotate(5.73)" xlink:href="#Naamloos_verloop_7"/></defs><g id="Laag_2" data-name="Laag 2"><g id="Laag_1-2" data-name="Laag 1"><circle class="cls-1" cx="78.18" cy="78.18" r="78.18"/><path class="cls-2" d="M124.21,78A45.13,45.13,0,0,1,34,78c0-16.83,11.32,18.3,25,10.54,2.76-1.57-3.19-11.52-2.19-15,.54-1.87,5.58-2.83,10.4-4.19,3.14-.89-3.8-9.38-3.8-13.51,0-3.11,21.9-22.68,24.84-22.08A45.14,45.14,0,0,1,124.21,78Z"/><polygon class="cls-3" points="94.83 74.93 85.05 74.93 91.14 46.94 63.34 81.1 73.12 81.1 67.02 109.09 94.83 74.93"/><path class="cls-4" d="M54.94,42.69c-5.55,3.78,12,23.46-1.42,19.65-4.25-1.2-.17,13.74-3.48,14.32S31.87,63.73,32.15,61.58C35.32,36.85,52,26.37,77.63,28,77.63,28,72,31.06,54.94,42.69Z"/><rect class="cls-5" x="94.99" y="105.13" width="26.37" height="5.77" rx="2.89"/></g></g></svg>