<svg xmlns="http://www.w3.org/2000/svg" xmlns:xlink="http://www.w3.org/1999/xlink" viewBox="0 0 156.36 156.36"><defs><style>.cls-1{fill:none;}.cls-2{fill:url(#Naamloos_verloop_7);}.cls-3{fill:#fff;}.cls-4{fill:url(#Naamloos_verloop_7-2);}.cls-5{fill:#3c3c3b;stroke:#fff;stroke-miterlimit:10;}</style><linearGradient id="Naamloos_verloop_7" x1="78.3" y1="33.95" x2="78.3" y2="123.31" gradientUnits="userSpaceOnUse"><stop offset="0" stop-color="#662483"/><stop offset="1" stop-color="#951b81" stop-opacity="0.6"/></linearGradient><linearGradient id="Naamloos_verloop_7-2" x1="20.71" y1="35.63" x2="20.71" y2="86.81" gradientTransform="translate(38.95 -11.41) rotate(5.73)" xlink:href="#Naamloos_verloop_7"/></defs><g id="Laag_2" data-name="Laag 2"><g id="Laag_1-2" data-name="Laag 1"><circle class="cls-1" cx="78.18" cy="78.18" r="78.18"/><path class="cls-2" d="M123.43,78.18a45.14,45.14,0,0,1-90.27,0c0-16.83,11.32,18.29,25,10.53,2.77-1.57-3.18-11.52-2.19-15,.54-1.88,5.58-2.83,10.4-4.2,3.14-.89-3.8-9.38-3.8-13.5,0-3.12,21.9-22.69,24.84-22.09A45.15,45.15,0,0,1,123.43,78.18Z"/><polygon class="cls-3" points="94.04 75.1 84.26 75.1 90.36 47.1 62.55 81.26 72.33 81.26 66.24 109.26 94.04 75.1"/><path class="cls-4" d="M54.15,42.86c-5.54,3.77,12,23.46-1.41,19.65-4.25-1.21-.18,13.73-3.49,14.31S31.08,63.9,31.36,61.74C34.53,37,51.19,26.54,76.84,28.21,76.84,28.21,71.25,31.22,54.15,42.86Z"/><rect class="cls-5" x="94.99" y="105.13" width="26.37" height="5.77" rx="2.89"/></g></g></svg>