<svg xmlns="http://www.w3.org/2000/svg" xmlns:xlink="http://www.w3.org/1999/xlink" viewBox="0 0 156.36 156.36"><defs><style>.cls-1{fill:url(#Naamloos_verloop_7);}.cls-2{fill:#fff;}.cls-3{fill:none;}.cls-4{fill:#3c3c3b;stroke:#fff;stroke-miterlimit:10;}</style><linearGradient id="Naamloos_verloop_7" x1="78.18" y1="33.05" x2="78.18" y2="123.31" gradientUnits="userSpaceOnUse"><stop offset="0" stop-color="#662483"/><stop offset="1" stop-color="#951b81" stop-opacity="0.6"/></linearGradient></defs><g id="Laag_2" data-name="Laag 2"><g id="Laag_1-2" data-name="Laag 1"><circle class="cls-1" cx="78.18" cy="78.18" r="45.13"/><polygon class="cls-2" points="93.92 75.1 84.14 75.1 90.24 47.1 62.44 81.26 72.22 81.26 66.12 109.26 93.92 75.1"/><circle class="cls-3" cx="78.18" cy="78.18" r="78.18"/><path class="cls-4" d="M118.53,105.34H111V97.83a2.84,2.84,0,1,0-5.67,0v7.51H97.83a2.84,2.84,0,1,0,0,5.67h7.51v7.52a2.84,2.84,0,0,0,5.67,0V111h7.52a2.84,2.84,0,0,0,0-5.67Z"/></g></g></svg>