<svg xmlns="http://www.w3.org/2000/svg" xmlns:xlink="http://www.w3.org/1999/xlink" viewBox="0 0 108.96 108.96"><defs><style>.cls-1{fill:#e95118;}.cls-2{fill:#fff;}.cls-3{fill:none;stroke-miterlimit:10;stroke-width:4px;opacity:0;stroke:url(#Naamloos_verloop_28);}</style><linearGradient id="Naamloos_verloop_28" x1="54.48" x2="54.48" y2="108.96" gradientUnits="userSpaceOnUse"><stop offset="0" stop-color="#f39200"/><stop offset="1" stop-color="#f9b233" stop-opacity="0.6"/></linearGradient></defs><g id="Laag_2" data-name="Laag 2"><g id="Laag_1-2" data-name="Laag 1"><circle class="cls-1" cx="53.77" cy="54.48" r="45.13"/><path class="cls-2" d="M32.39,69h0c-4.19-2.53-6.81-6.15-6.81-10.17C25.59,51.19,35,45,46.61,45s21,6.18,21,13.81-9.41,13.8-21,13.8a30.54,30.54,0,0,1-8.86-1.28c-1.63,2.83-9.44,2.59-9.71,1.6C27.87,72.34,30.6,71.89,32.39,69Z"/><path class="cls-2" d="M74.28,61.62h0c5-3,8.16-7.37,8.16-12.2,0-9.15-11.29-16.56-25.21-16.56-12.6,0-23,6.07-24.91,14a29.4,29.4,0,0,1,14.5-3.6c12.51,0,22.64,6.95,22.64,15.52a11.38,11.38,0,0,1-1.59,5.71c2,3.35,11.31,3.06,11.64,1.88C79.7,65.63,76.42,65.09,74.28,61.62Z"/><circle class="cls-3" cx="54.48" cy="54.48" r="52.48"/></g></g></svg>